# xmcd CD database file
#
# Track frame offsets:
#	150
#	27066
#	51376
#	69906
#	86532
#	102422
#	131592
#	154098
#	164875
#	197701
#	207368
#	222292
#	247868
#	277241
#
# Disc length: 3881 seconds
#
# Revision: 4
# Processed by: cddbd v1.5.2PL0 Copyright (c) Steve Scherf et al.
# Submitted via: CDex 1.70beta2
#
DISCID=cf0f270e
DTITLE=Mushroom's Patience - The Spirit Of The Mountain
DYEAR=2002
DGENRE=Industrial
TTITLE0=The Swing Of Fools
TTITLE1=The Spirit Of The Mountain I
TTITLE2=Z'ruck Zu Dir
TTITLE3=Captain Kwaart
TTITLE4=Trumpeter's Coat
TTITLE5=Ballad For J.E.
TTITLE6=King Soleil
TTITLE7=The Spirit Of The Mountain II
TTITLE8=Drinking From The Magic Fountain
TTITLE9=Sunday On The Hills With Ermes
TTITLE10=Hostaria Disco Dance
TTITLE11=Night On Monte Rosa
TTITLE12=Dawn
TTITLE13=Titles
EXTD=YEAR: 2002
EXTT0=
EXTT1=
EXTT2=
EXTT3=
EXTT4=
EXTT5=
EXTT6=
EXTT7=
EXTT8=
EXTT9=
EXTT10=
EXTT11=
EXTT12=
EXTT13=
PLAYORDER=
